<svg xmlns="http://www.w3.org/2000/svg" width="272.48" height="144.24" viewBox="0 0 272.48 144.24"><defs><style>.ec7c754f-34c6-4444-988f-aaddd4a2c882{fill:none;}.adba33a4-da2c-4107-b43c-02c2db40da25{clip-path:url(#b5656370-055d-41bc-9226-fc3810bd9baa);}.f1fc6dc5-1c9c-4747-b9a6-d9afced374d3{fill:#0c224a;}</style><clipPath id="b5656370-055d-41bc-9226-fc3810bd9baa"><rect width="272.48" height="144.24" class="ec7c754f-34c6-4444-988f-aaddd4a2c882"/></clipPath></defs><g id="f52b5ea2-7c24-4097-8417-86f43106ad88" data-name="Layer 2"><g id="f944fcdf-dec6-4cbc-aeaa-9fe77498b9df" class="adba33a4-da2c-4107-b43c-02c2db40da25" data-name="Layer 1"><path d="M154.63 50.17v-.2a4.56 4.56 0 00.08-.82 4.67 4.67 0 00-.08-.83 1.18 1.18 0 010-.2 5.15 5.15 0 00-.24-.76v-.09a4.78 4.78 0 00-.23-.45L128.29 2.31l-.09-.11a4.27 4.27 0 00-.29-.41c-.09-.11-.18-.23-.28-.33a2.81 2.81 0 00-.31-.29 3.57 3.57 0 00-.32-.31 4.05 4.05 0 00-.35-.21c-.14-.08-.28-.16-.43-.23a2.79 2.79 0 00-.37-.14 4.42 4.42 0 00-.48-.15c-.12 0-.25 0-.37-.06l-.6-.07h-68a5.56 5.56 0 00-.82.08l-.21.05a4.78 4.78 0 00-.76.23h-.05a5.19 5.19 0 00-.66.35l-.16.11A4.76 4.76 0 0052.64 2l-.12.18-.12.18L.62 92.2a4.65 4.65 0 000 4.65l25.76 44.56a1.13 1.13 0 00.12.18c0 .06.07.12.11.17a5.09 5.09 0 00.5.61 4.23 4.23 0 00.61.51l.17.11a4.82 4.82 0 00.63.35h.08a4 4 0 00.76.24h.2a4.67 4.67 0 00.83.08h67.86a4.47 4.47 0 00.82-.08h.21a4.87 4.87 0 00.74-.23l.12-.06a4 4 0 00.61-.33l.15-.1a5 5 0 00.63-.51 4.65 4.65 0 00.49-.59l.12-.18.12-.18 11.86-20.57c.08-.15.15-.3.22-.45v-.08a4.05 4.05 0 00.23-.75v-.21a4.45 4.45 0 00.08-.81v-.07a4.76 4.76 0 00-.07-.75v-.18a4.69 4.69 0 00-.24-.75c0-.06-.05-.11-.07-.17l-.14-.3c-3.18-5.85-4.94-13.61-4.94-21.86a48.05 48.05 0 014.06-20.12h24.95a4.64 4.64 0 004-2.32l11.84-20.54a4.25 4.25 0 00.21-.43.93.93 0 000-.1 5.15 5.15 0 00.24-.76M135.58 65H78.47L85 53.79h57.11zM84.94 44.5L64.5 9.29h57.09L142 44.5zm-28.5-30.57l20.45 35.22-7 12.08C66 57.16 61.43 55 56.53 55c-13.69 0-24.41 17.32-24.41 39.44A57.81 57.81 0 0037 118.36l-6.6 11.43L10 94.52zm45.62 109.24l-6.5 11.27H38.45L45 123.17zm1-9.3h-57.9a48.71 48.71 0 01-3.75-19.43c0-17.77 8-30.16 15.12-30.16 3.45 0 7 2.81 9.86 7.71l.12.18a2.14 2.14 0 00.13.19 4.68 4.68 0 001.11 1.11l.17.11a4.94 4.94 0 00.64.35h.07a3.86 3.86 0 00.75.24h.22a4.47 4.47 0 00.82.08h32.87a62.54 62.54 0 00-.24 39.55" class="f1fc6dc5-1c9c-4747-b9a6-d9afced374d3"/><path d="M138.14 85.3H144l8.84 24.43h-5.91l-1.55-4.66h-8.86l-1.52 4.66h-5.62zm-.36 15.77h6.27l-1.48-4.57A53.9 53.9 0 01141 90h-.07s-.85 4.1-1.64 6.5z" class="f1fc6dc5-1c9c-4747-b9a6-d9afced374d3"/><path d="M155.32 85.3h10.18c6.87 0 11.27 4.9 11.27 12.38 0 7.26-4.11 12.06-11.59 12.06h-9.86zm9.43 19.7c4.23 0 6.3-2.66 6.3-7.33S169 90 164.85 90h-3.91v15z" class="f1fc6dc5-1c9c-4747-b9a6-d9afced374d3"/><path d="M185.41 85.3h5.81l8.83 24.43h-5.91l-1.54-4.66h-8.87l-1.51 4.66h-5.61zm-.36 15.77h6.27l-1.48-4.57a53.9 53.9 0 01-1.57-6.5h-.07s-.85 4.1-1.64 6.5z" class="f1fc6dc5-1c9c-4747-b9a6-d9afced374d3"/><path d="M202.53 85.3H210l3.06 10.18c.88 3.06 1.84 8.7 1.84 8.7h.1s.92-5.64 1.8-8.7l3-10.18h7.62v24.43h-5.16V98.8c0-3.09.4-8.8.4-8.8h-.07s-1.05 5.22-1.9 8.11l-3.48 11.62h-4.6l-3.52-11.62c-.85-2.89-1.9-8.11-1.9-8.11h-.07s.4 5.71.4 8.8v10.93h-5z" class="f1fc6dc5-1c9c-4747-b9a6-d9afced374d3"/><path d="M130.06 131.56c0-7.29 4.7-12.74 12-12.74a11.17 11.17 0 016.7 1.91 9.36 9.36 0 013.77 6.76h-5.58a4.66 4.66 0 00-4.92-4c-4.17 0-6.24 3.45-6.24 8.08s2.43 8.05 6.27 8.05a4.82 4.82 0 005.09-4.47h5.61a9.89 9.89 0 01-2.95 6.34c-1.84 1.81-4.33 2.76-7.75 2.76-7.12 0-12-5.39-12-12.68" class="f1fc6dc5-1c9c-4747-b9a6-d9afced374d3"/><polygon points="155.69 119.25 161.27 119.25 161.27 128.67 170.5 128.67 170.5 119.25 176.08 119.25 176.08 143.68 170.5 143.68 170.5 133.33 161.27 133.33 161.27 143.68 155.69 143.68 155.69 119.25" class="f1fc6dc5-1c9c-4747-b9a6-d9afced374d3"/><path d="M180 135.17v-15.92h5.58v16.05c0 2.66 1.41 4.31 4.57 4.31 2.92 0 4.43-1.74 4.43-4.4v-16h5.61v15.92c0 5.68-3.51 9-10 9s-10.15-3.22-10.15-9" class="f1fc6dc5-1c9c-4747-b9a6-d9afced374d3"/><path d="M204 119.25h11.62c4.76 0 8.34 2.53 8.34 7 0 2.86-1.41 4.93-4.53 6v.09c2.43.76 3.51 2.1 3.84 4.73.46 3.32.26 6.08 1.05 6.41v.26h-5.51c-.66-.36-.6-3-.89-5.65-.3-2.43-1.51-3.68-4.21-3.68h-4.13v9.33H204zm5.58 11h5c2.49 0 3.84-1.29 3.84-3.22s-1.22-3.32-3.68-3.32h-5.12z" class="f1fc6dc5-1c9c-4747-b9a6-d9afced374d3"/><path d="M226.47 131.56c0-7.29 4.7-12.74 12-12.74a11.17 11.17 0 016.7 1.91 9.36 9.36 0 013.77 6.76h-5.58a4.67 4.67 0 00-4.92-4c-4.17 0-6.24 3.45-6.24 8.08s2.43 8.05 6.27 8.05a4.82 4.82 0 005.09-4.47h5.61a9.89 9.89 0 01-2.95 6.34c-1.84 1.81-4.34 2.76-7.75 2.76-7.13 0-12-5.39-12-12.68" class="f1fc6dc5-1c9c-4747-b9a6-d9afced374d3"/><polygon points="252.09 119.25 257.68 119.25 257.68 128.67 266.9 128.67 266.9 119.25 272.48 119.25 272.48 143.68 266.9 143.68 266.9 133.33 257.68 133.33 257.68 143.68 252.09 143.68 252.09 119.25" class="f1fc6dc5-1c9c-4747-b9a6-d9afced374d3"/></g></g></svg>